<svg xmlns="http://www.w3.org/2000/svg" style="display: none;">

  <!-- minicons-icons -->
  <symbol id="minicons-square-vector" viewBox="0 0 512 512">
    <path d="M 93.379909,63.979157 418.7168,63.99935 c -3.66219,10.93279 -3.51639,21.601137 0.0118,32.034598 L 93.283199,96.00065 c 3.527888,-10.427659 3.659578,-21.094486 0.09671,-32.021493 z m 0.03374,352.099263 325.306149,-0.0876 c -3.76104,10.72833 -3.49087,21.41752 0.0201,32.07524 l -325.470998,-0.025 c 3.514521,-10.21243 3.831515,-20.83239 0.144719,-31.96263 z M 32.082177,125.27889 c 10.459409,3.52044 21.100501,3.72519 31.959331,-0.0438 l -0.02779,261.38257 c -10.742946,-3.48786 -21.417272,-3.5104 -32.018977,0.13438 z m 415.869153,-0.0464 c 11.45075,4.00147 22.02759,3.38369 32.08217,0.005 l -0.0409,261.50959 c -10.28518,-3.48912 -20.90356,-3.89612 -31.98723,7.5e-4 z M 48,32 C 22,32 0,53 0,80 0,107 22,128 48,128 74,128 96,107 96,80 96,53 75,32 48,32 m 416,96 c 26,0 48,-21 48,-48 0,-27 -22,-48 -48,-48 -26,0 -48,21 -48,48 0,27 22,48 48,48 m 0,256 c -26,0 -48,21 -48,48 0,27 22,48 48,48 26,0 48,-21 48,-48 0,-27 -22,-48 -48,-48 m -416,0 c -26,0 -48,21 -48,48 0,27 22,48 48,48 26,0 48,-21 48,-48 0,-27 -21,-48 -48,-48"/>
  </symbol>
  <symbol id="minicons-line-vector" viewBox="0 0 512 512">
    <path d="m 197.10724,189.0702 134.8205,152.8873 c -13.59341,5.61187 -21.68524,13.56133 -26.47342,23.49558 L 170.76154,216.80596 c 13.04776,-4.55937 24.93294,-20.73236 26.3457,-27.73576 z m -74.68326,21.38163 c 9.53121,7.99361 20.72676,9.6562 30.96362,10.16996 L 80.426162,396.25928 c -8.062327,-7.20424 -17.728406,-11.45759 -29.32113,-12.16591 z m 309.51059,-94.74391 c 9.07252,7.73357 19.01283,11.89954 29.88303,12.24265 l -77.62667,227.18022 c -6.61817,-7.00085 -14.70777,-13.08703 -28.65366,-15.53281 z m -279.95759,8.9345 c -26,0 -48,21 -48,48.00001 0,27 22,48 48,48 26,0 48,-21 48,-48 0,-27.00001 -21,-48.00001 -48,-48.00001 M 464,128 c 26,0 48,-21 48,-48 0,-27 -22,-48 -48,-48 -26,0 -48,21 -48,48 0,27 22,48 48,48 M 348.34609,339.05678 c -26,0 -48,21 -48,48 0,27 22,48 48,48 26,0 48,-21 48,-48 0,-27 -22,-48 -48,-48 M 48,384 c -26,0 -48,21 -48,48 0,27 22,48 48,48 26,0 48,-21 48,-48 0,-27 -21,-48 -48,-48"/>
  </symbol>
  <symbol id="minicons-hand-vector" viewBox="0 0 512 512">
    <path d="M154.142,86.062c0-36.337,30.6-66.938,66.938-66.938s66.937,30.6,66.937,66.938v53.55
			c11.476-15.3,19.125-34.425,19.125-53.55C307.141,38.25,268.891,0,221.079,0c-47.812,0-86.062,38.25-86.062,86.062
			c0,21.038,7.65,40.163,19.125,53.55V86.062z"/>
		<path d="M450.579,229.5c-11.475,0-21.037,3.825-28.688,9.562l0,0c0-26.775-21.037-47.812-47.812-47.812
			c-11.475,0-22.949,3.825-32.512,11.475c-7.65-19.125-24.863-30.6-43.988-30.6c-11.475,0-21.037,3.825-28.688,9.562V86.062
			c0-26.775-21.037-47.812-47.812-47.812s-47.812,21.038-47.812,47.812v170.212c-38.25-34.425-80.325-61.2-107.1-34.425
			c-38.25,38.25,42.075,112.837,103.275,225.675c43.988,78.412,105.188,107.1,166.387,107.1
			c89.888,0,162.562-72.675,162.562-162.562v-114.75C498.391,250.538,477.354,229.5,450.579,229.5z M479.266,319.388v72.675
			c0,74.588-65.024,143.438-143.438,143.438c-72.675,0-114.75-40.162-149.175-95.625c-72.675-126.225-126.225-183.6-107.1-204.638
			c21.037-21.037,72.675,24.863,112.837,66.938V86.062c0-15.3,13.387-28.688,28.688-28.688c15.3,0,28.688,13.388,28.688,28.688
			v200.812h19.125v-66.938c0-15.3,13.388-28.688,28.688-28.688c15.301,0,28.688,13.388,28.688,28.688v47.812h19.125v-28.688
			c0-15.3,13.388-28.688,28.688-28.688c15.301,0,28.688,13.388,28.688,28.688v47.812h19.125v-9.562
			c0-15.3,13.388-28.688,28.688-28.688c15.301,0,28.688,13.388,28.688,28.688V319.388z"/>
  </symbol>
  <symbol id="minicons-linjar-vector" viewBox="0 0 512 512">
    <path d="M32,480h480v32H0V0h32v96h32v32H32v64h32v32H32v64h32v32H32v64h32v32H32V480z M96,336c0-26.5,21.484-48,48-48
  c4.984,0,9.688,0.969,14.219,2.375l41.844-55.813C194.984,226.969,192,217.813,192,208c0-26.5,21.5-48,48-48s48,21.5,48,48
  c0,5-0.969,9.688-2.391,14.219l55.797,41.844C349.031,259,358.156,256,368,256c2,0,3.875,0.344,5.812,0.594L429.5,145.25
  c-8.312-8.625-13.5-20.313-13.5-33.25c0-26.5,21.5-48,48-48s48,21.5,48,48s-21.5,48-48,48c-2,0-3.875-0.344-5.812-0.594
  L402.531,270.75C410.844,279.375,416,291.062,416,304c0,26.5-21.5,48-48,48s-48-21.5-48-48c0-4.969,0.969-9.688,2.375-14.219
  l-55.797-41.844C258.969,253,249.828,256,240,256c-4.984,0-9.688-0.969-14.203-2.375l-41.859,55.781
  C189.016,317.031,192,326.156,192,336c0,26.5-21.484,48-48,48S96,362.5,96,336z M448,112c0,8.844,7.156,16,16,16s16-7.156,16-16
  s-7.156-16-16-16S448,103.156,448,112z M352,304c0,8.844,7.156,16,16,16s16-7.156,16-16s-7.156-16-16-16S352,295.156,352,304z
   M224,208c0,8.844,7.156,16,16,16s16-7.156,16-16s-7.156-16-16-16S224,199.156,224,208z M128,336c0,8.844,7.156,16,16,16
  s16-7.156,16-16s-7.156-16-16-16S128,327.156,128,336z"/>
  </symbol>
  <symbol id="minicons-bar-vector" viewBox="0 0 512 512">
    <path d="M499.904,456.607H12.096C5.415,456.607,0,462.022,0,468.703c0,6.679,5.415,12.096,12.096,12.096h487.808
			c6.679,0,12.096-5.417,12.096-12.096C512,462.023,506.585,456.607,499.904,456.607z"/>
      <path d="M468.37,88.305h-84.948c-6.679,0-12.096,5.417-12.096,12.096v82.24h-60.757V43.297c0-6.679-5.417-12.096-12.096-12.096
  			h-84.95c-6.679,0-12.096,5.417-12.096,12.096v228.882h-60.757V169.36c0-6.681-5.417-12.096-12.096-12.096H43.626
  			c-6.681,0-12.096,5.415-12.096,12.096v231.563c0,6.681,5.417,12.096,12.096,12.096h84.948h84.948h84.95h84.949h84.948
  			c6.681,0,12.096-5.417,12.096-12.096V100.401C480.466,93.722,475.051,88.305,468.37,88.305z M116.479,388.827H55.722V181.456
  			h60.757V388.827z M201.429,388.827h-60.757v-92.456h60.757V388.827z M286.378,194.737v194.09H225.62V55.393h60.758V194.737z
  			 M371.328,388.827h-60.757V206.833h60.757V388.827z M456.276,388.827H395.52v-194.09v-82.24h60.757V388.827z"/>
  </symbol>
  <symbol id="minicons-radar-vector" viewBox="0 0 212 212">
    <path d="M133.267,0C59.783,0,0,59.783,0,133.267c0,4.142,3.357,7.5,7.5,7.5s7.5-3.358,7.5-7.5C15,68.054,68.054,15,133.267,15
      s118.267,53.054,118.267,118.267s-53.054,118.267-118.267,118.267c-24.152,0-47.378-7.23-67.165-20.909
      c-19.342-13.37-34.136-31.939-42.784-53.7c-1.53-3.849-5.893-5.73-9.739-4.2c-3.85,1.53-5.73,5.89-4.2,9.74
      c9.744,24.52,26.409,45.44,48.193,60.499c22.307,15.42,48.481,23.57,75.695,23.57c73.483,0,133.267-59.783,133.267-133.267
      S206.75,0,133.267,0z"/>
    <path d="M133.267,54.529c-43.416,0-78.737,35.322-78.737,78.738s35.321,78.738,78.737,78.738s78.737-35.322,78.737-78.738
      c0-28.5-15.469-54.852-40.369-68.771c-3.617-2.023-8.185-0.729-10.206,2.887c-2.021,3.616-0.729,8.185,2.888,10.206
      c20.162,11.271,32.688,32.605,32.688,55.678c0,35.145-28.593,63.738-63.737,63.738s-63.737-28.593-63.737-63.738
      s28.593-63.738,63.737-63.738c4.143,0,7.5-3.358,7.5-7.5S137.409,54.529,133.267,54.529z"/>
    <path d="M106.531,133.267c0,14.742,11.993,26.735,26.735,26.735s26.735-11.994,26.735-26.735s-11.993-26.735-26.735-26.735
      S106.531,118.525,106.531,133.267z M145.002,133.267c0,6.471-5.265,11.735-11.735,11.735s-11.735-5.265-11.735-11.735
      s5.265-11.735,11.735-11.735S145.002,126.796,145.002,133.267z"/>
  </symbol>
  <symbol id="minicons-doughnut-vector" viewBox="0 0 60.694 60.694">
    <path d="M30.347,60.694c-16.733,0-30.346-13.614-30.346-30.348C0.001,13.614,13.614,0,30.347,0
      c3.739,0,7.403,0.681,10.892,2.022c0.909,0.35,1.434,1.304,1.242,2.26c-0.086,0.426-0.129,0.86-0.129,1.29
      c0,3.587,2.918,6.505,6.504,6.505c1.068,0,2.09-0.254,3.037-0.755c0.861-0.456,1.926-0.224,2.521,0.549
      c4.107,5.344,6.279,11.732,6.279,18.475C60.694,47.079,47.081,60.694,30.347,60.694z M30.347,4C15.82,4,4.001,15.818,4.001,30.346
      S15.82,56.694,30.347,56.694c14.528,0,26.347-11.819,26.347-26.348c0-5.34-1.569-10.425-4.553-14.798
      c-1.059,0.349-2.17,0.529-3.285,0.529c-5.792,0-10.504-4.713-10.504-10.505c0-0.108,0.002-0.217,0.005-0.325
      C35.768,4.419,33.081,4,30.347,4z M30.347,40.852c-5.792,0-10.504-4.713-10.504-10.505c0-5.791,4.712-10.503,10.504-10.503
      s10.504,4.712,10.504,10.503C40.851,36.139,36.139,40.852,30.347,40.852z M30.347,23.844c-3.586,0-6.504,2.917-6.504,6.503
      c0,3.587,2.917,6.505,6.504,6.505s6.504-2.918,6.504-6.505C36.851,26.761,33.934,23.844,30.347,23.844z"/>
  </symbol>
  <symbol id="minicons-circle-vector" viewBox="0 0 511.188 511.188">
    <path d="M36.657,303.188h218.531c8.374,0,16.655-2.219,23.999-6.438l189.375-109.344c7.064,21.906,10.625,44.563,10.625,67.781
  		c0,123.5-100.5,224-224,224C148.907,479.188,58.782,404.219,36.657,303.188 M0,271.188c8.313,133.906,119.219,240,255.188,240
  		c141.374,0,255.999-114.625,255.999-256c0-40.938-9.844-79.469-26.938-113.781L263.188,269.031c-2.5,1.438-5.25,2.156-8,2.156H0
  		L0,271.188z M0,239.188h239.188V0C110.625,7.969,7.969,110.625,0,239.188z M36.688,207.188
  		c18.594-84.969,85.531-151.906,170.5-170.5v170.5H36.688z M303.188,36.594c45.439,9.813,86.219,33.281,117.469,67.656
  		l-117.469,67.812V36.594 M271.188,0v227.469l197.219-113.844C425.312,48.844,353.5,5.094,271.188,0L271.188,0z"/>
  </symbol>
  <symbol id="minicons-polar-vector" viewBox="0 0 470.028 470.028">
    <path d="M455.473,49.271c-9.508-9.508-22.506-14.534-37.587-14.534c-16.657,0-34.768,6.397-50.566,17.721
  		c-17.553-16.098-40.071-24.886-64.113-24.886H166.821c-24.042,0-46.56,8.788-64.113,24.886
  		C86.91,41.134,68.798,34.737,52.142,34.737c-15.082,0-28.079,5.026-37.587,14.534C2.631,61.195-2.206,78.56,0.934,98.169
  		c2.863,17.877,12.124,35.754,26.176,50.622l15.313,226.807c2.489,36.866,34.575,66.858,71.525,66.858h242.131
  		c36.95,0,69.036-29.993,71.525-66.858l15.314-226.807c14.052-14.868,23.313-32.745,26.176-50.622
  		C472.234,78.56,467.397,61.195,455.473,49.271z M430.3,140.259c-1.273,1.281-2.041,2.979-2.163,4.781l-15.499,229.547
  		c-1.968,29.152-27.341,52.869-56.559,52.869H113.949c-29.218,0-54.591-23.717-56.559-52.869L41.891,145.04
  		c-0.122-1.802-0.89-3.5-2.163-4.781c-26.094-26.26-32.629-62.319-14.567-80.381c6.634-6.634,15.964-10.141,26.981-10.141
  		c15.173,0,32.096,6.72,46.43,18.437c3.04,2.485,7.481,2.205,10.185-0.642c15.29-16.096,35.911-24.961,58.064-24.961h136.387
  		c22.154,0,42.775,8.865,58.064,24.961c2.705,2.848,7.146,3.127,10.185,0.642c14.333-11.717,31.256-18.437,46.429-18.437
  		c11.017,0,20.346,3.506,26.98,10.141C462.928,77.939,456.393,113.998,430.3,140.259z"/>
  	<path d="M100.629,86.236C85.486,71.092,68.49,65.697,57.633,65.697c-6.962,0-12.633,1.99-16.397,5.756
  		c-2.929,2.929-2.928,7.678,0.001,10.606c2.929,2.929,7.678,2.929,10.606-0.001c0.628-0.628,2.521-1.361,5.79-1.361
  		c6.588,0,17.416,3.268,28.035,12.157c-4.021,4.024-7.856,8.211-11.456,12.507c-2.66,3.175-2.243,7.906,0.932,10.566
  		c1.405,1.177,3.113,1.751,4.813,1.751c2.142,0,4.27-0.913,5.753-2.684c4.827-5.761,10.119-11.313,15.731-16.505
  		c0.194-0.167,0.38-0.345,0.56-0.534c2.749-2.902,2.738-7.451-0.024-10.34C101.537,87.154,101.087,86.694,100.629,86.236z"/>
  	<path d="M420.359,65.697c-10.856,0-27.853,5.396-42.996,20.539c-0.458,0.458-0.908,0.918-1.349,1.379
  		c-2.762,2.89-2.771,7.437-0.022,10.339c0.163,0.171,0.331,0.333,0.506,0.487c5.629,5.203,10.939,10.771,15.785,16.554
  		c1.483,1.771,3.61,2.683,5.752,2.683c1.7,0,3.409-0.574,4.813-1.751c3.175-2.66,3.592-7.391,0.932-10.565
  		c-3.601-4.297-7.437-8.484-11.456-12.507c10.619-8.889,21.447-12.157,28.035-12.157c3.269,0,5.162,0.733,5.79,1.361
  		c2.928,2.929,7.677,2.93,10.606,0.001c2.929-2.929,2.93-7.677,0.001-10.606C432.992,67.687,427.321,65.697,420.359,65.697z"/>
  	<path d="M211.041,316.723c4.008-1.045,6.409-5.142,5.364-9.15c-0.206-0.789-0.092-1.216-0.002-1.332
  		c0.089-0.115,0.474-0.334,1.29-0.334h9.822v39.86h-18.332c-4.142,0-7.5,3.358-7.5,7.5s3.358,7.5,7.5,7.5h51.663
  		c4.142,0,7.5-3.358,7.5-7.5s-3.358-7.5-7.5-7.5h-18.332v-39.86h9.655c0.794,0,1.243,0.211,1.399,0.408
  		c0.155,0.197,0.256,0.683,0.07,1.456c-0.966,4.028,1.515,8.077,5.543,9.043c0.588,0.141,1.177,0.209,1.756,0.209
  		c3.388,0,6.461-2.313,7.287-5.752c1.238-5.162,0.19-10.353-2.877-14.243c-3.067-3.89-7.871-6.121-13.178-6.121h-34.477
  		c-5.337,0-10.134,2.247-13.16,6.164c-3.026,3.917-3.989,9.125-2.642,14.289C202.936,315.367,207.033,317.774,211.041,316.723z"/>
  	<path d="M339.844,154.906c-29.376,0-53.276,23.899-53.276,53.276l0,138.228c0,18.552-15.093,33.646-33.645,33.646h-35.816
  		c-18.552,0-33.645-15.093-33.645-33.646l0-138.228c0-29.376-23.899-53.276-53.276-53.276c-4.142,0-7.5,3.358-7.5,7.5v16.66
  		c0,4.142,3.358,7.5,7.5,7.5s7.5-3.358,7.5-7.5v-8.422c17.527,3.496,30.776,18.999,30.776,37.538V346.41
  		c0,26.823,21.822,48.646,48.645,48.646h35.816c26.823,0,48.645-21.822,48.645-48.646l0-138.228
  		c0-18.54,13.249-34.042,30.776-37.538v8.422c0,4.142,3.358,7.5,7.5,7.5s7.5-3.358,7.5-7.5v-16.66
  		C347.344,158.264,343.986,154.906,339.844,154.906z"/>
  	<path d="M260.014,114.24c4.142,0,7.5-3.358,7.5-7.5v-10c0-4.142-3.358-7.5-7.5-7.5s-7.5,3.358-7.5,7.5v10
  		C252.514,110.882,255.872,114.24,260.014,114.24z"/>
  	<path d="M235.014,144.24c4.142,0,7.5-3.358,7.5-7.5v-10c0-4.142-3.358-7.5-7.5-7.5s-7.5,3.358-7.5,7.5v10
  		C227.514,140.882,230.872,144.24,235.014,144.24z"/>
  	<path d="M210.014,114.24c4.142,0,7.5-3.358,7.5-7.5v-10c0-4.142-3.358-7.5-7.5-7.5s-7.5,3.358-7.5,7.5v10
  		C202.514,110.882,205.872,114.24,210.014,114.24z"/>
  </symbol>
  <symbol id="minicons-bubble-vector" viewBox="0 0 1000 1000">
    <path d="M356.6,320.4c0,171.4,139,310.4,310.4,310.4c171.4,0,310.4-139,310.4-310.4C977.3,149,838.4,10,667,10C495.6,10,356.6,149,356.6,320.4L356.6,320.4z"/>
    <path d="M22.7,776c0,118.2,95.8,214,214,214s214-95.8,214-214c0-118.2-95.8-214-214-214S22.7,657.7,22.7,776L22.7,776z"/>
    <path d="M644.6,841.5c0,81.5,66.1,147.5,147.5,147.5c81.5,0,147.5-66.1,147.5-147.5c0-81.5-66.1-147.5-147.5-147.5C710.7,694,644.6,760,644.6,841.5z"/>
  </symbol>
  <!-- steady-icons -->
  <symbol id="steady-measure" viewBox="0 0 512 512">
    <path d="m64 299l21 0l0-22l-21 0z m21-214l-21 0l0 22l21 0z m0 384l-21 0l0 22l-43 0l0 21l107 0l0-21l-43 0z m-21-298l21 0l0-22l-21 0z m0 64l21 0l0-22l-21 0z m128-235l0 512l277 0l0-512z m171 469l-128 0l0-426l128 0z m64 0l-43 0l0-42l43 0z m0-64l-43 0l0-42l43 0z m0-64l-43 0l0-42l43 0z m0-64l-43 0l0-42l43 0z m0-64l-43 0l0-42l43 0z m0-64l-43 0l0-42l43 0z m0-64l-43 0l0-42l43 0z m-406-64l43 0l0 22l21 0l0-22l43 0l0-21l-107 0z m43 406l21 0l0-22l-21 0z m0-64l21 0l0-22l-21 0z"/>
  </symbol>

  <symbol id="steady-select" viewBox="0 0 512 512">
		<path d="M444.902,365.824L231.569,152.491c-3.072-3.029-7.637-3.968-11.627-2.304c-3.989,1.643-6.592,5.547-6.592,9.856v295.381
			c0,4.075,2.325,7.787,5.995,9.579c3.669,1.792,8.043,1.344,11.221-1.173l54.165-42.347l47.275,85.077
			c1.963,3.499,5.589,5.483,9.344,5.483c1.6,0,3.243-0.363,4.779-1.131l64-32c2.603-1.301,4.565-3.605,5.419-6.379
			c0.853-2.795,0.533-5.803-0.853-8.341l-44.544-80.149h67.2c4.309,0,8.192-2.603,9.856-6.592
			C448.87,373.461,447.953,368.875,444.902,365.824z M352.038,362.731c-3.776,0-7.275,2.005-9.195,5.269
			c-1.92,3.243-1.984,7.275-0.149,10.581l47.936,86.251l-44.907,22.464l-48.363-87.083c-1.515-2.731-4.16-4.672-7.211-5.291
			c-0.725-0.149-1.429-0.213-2.133-0.213c-2.347,0-4.693,0.789-6.571,2.261l-46.763,36.565V185.792l176.939,176.939H352.038z"/>
		<path d="M224.017,0c-5.888,0-10.667,4.779-10.667,10.667v64c0,5.888,4.779,10.667,10.667,10.667s10.667-4.779,10.667-10.667v-64
			C234.683,4.779,229.905,0,224.017,0z"/>
		<path d="M138.683,149.333h-64c-5.888,0-10.667,4.779-10.667,10.667s4.779,10.667,10.667,10.667h64
			c5.888,0,10.667-4.779,10.667-10.667S144.571,149.333,138.683,149.333z"/>
		<path d="M373.35,149.333h-64c-5.888,0-10.667,4.779-10.667,10.667s4.779,10.667,10.667,10.667h64
			c5.888,0,10.667-4.779,10.667-10.667S379.238,149.333,373.35,149.333z"/>
		<path d="M171.217,92.117l-45.269-45.248c-4.16-4.16-10.923-4.16-15.083,0c-4.16,4.16-4.16,10.923,0,15.083l45.269,45.248
			c2.091,2.069,4.821,3.115,7.552,3.115c2.731,0,5.461-1.024,7.531-3.115C175.377,103.04,175.377,96.277,171.217,92.117z"/>
		<path d="M171.217,212.821c-4.16-4.16-10.923-4.16-15.083,0l-45.269,45.248c-4.16,4.16-4.16,10.923,0,15.083
			c2.091,2.069,4.821,3.115,7.552,3.115s5.461-1.045,7.531-3.115l45.269-45.248C175.377,223.744,175.377,216.981,171.217,212.821z"
			/>
		<path d="M337.169,46.869c-4.16-4.181-10.923-4.181-15.104,0l-45.269,45.248c-4.16,4.16-4.16,10.923,0,15.083
			c2.091,2.069,4.821,3.115,7.552,3.115c2.731,0,5.461-1.024,7.552-3.115l45.269-45.248
			C341.329,57.792,341.329,51.051,337.169,46.869z"/>
  </symbol>

  <symbol id="steady-settings" viewBox="0 0 294 294">
    <path d="M59,15c0-8.284-6.716-15-15-15c-8.284,0-15,6.716-15,15v19h30V15z"/>
	  <path d="M29,279c0,8.284,6.716,15,15,15c8.284,0,15-6.716,15-15V152H29V279z"/>
	  <path d="M67.5,54h-47c-5.247,0-9.5,4.253-9.5,9.5v59c0,5.247,4.253,9.5,9.5,9.5h47c5.247,0,9.5-4.253,9.5-9.5v-59 C77,58.253,72.747,54,67.5,54z"/>
	  <path d="M132,279c0,8.284,6.716,15,15,15c8.284,0,15-6.716,15-15v-15h-30V279z"/>
	  <path d="M162,15c0-8.284-6.716-15-15-15c-8.284,0-15,6.716-15,15v131h30V15z"/>
    <path d="M170.5,166h-47c-5.247,0-9.5,4.253-9.5,9.5v59c0,5.247,4.253,9.5,9.5,9.5h47c5.247,0,9.5-4.253,9.5-9.5v-59 C180,170.253,175.747,166,170.5,166z"/>
	  <path d="M235,279c0,8.284,6.716,15,15,15c8.284,0,15-6.716,15-15v-83h-30V279z"/>
	  <path d="M265,15c0-8.284-6.716-15-15-15c-8.284,0-15,6.716-15,15v63h30V15z"/>
	  <path d="M273.5,98h-47c-5.247,0-9.5,4.253-9.5,9.5v59c0,5.247,4.253,9.5,9.5,9.5h47c5.247,0,9.5-4.253,9.5-9.5v-59 C283,102.253,278.747,98,273.5,98z"/>
  </symbol>

  <!-- origo-icons -->
  <symbol id="origo-compass" viewBox="0 0 512 512">
    <path opacity="0.7" fill="#010202" d="
		M511.454,256.228c0,140.957-114.27,255.227-255.227,255.227C115.268,511.454,1,397.185,1,256.228C1,115.269,115.268,1,256.227,1
		C397.185,1,511.454,115.269,511.454,256.228z"/>
	<path id="path3011" fill="#E52620" d="M252.316,17.455v9.485l-3.103,34.295l-3.947,43.43
		l-4.329,31.176l-16.439,118.371h32.879h32.88l-16.44-118.371l-4.186-30.189l-3.804-41.95l-3.405-37.494v-8.753H252.316
		L252.316,17.455z"/>
	<path id="path3011-7" fill="#FFFFFF" d="M252.286,491v-9.485l-3.103-34.295l-3.947-43.43
		l-4.329-31.177l-16.439-118.37h32.878h32.88l-16.439,118.37l-4.186,30.19l-3.805,41.949l-3.404,37.494V491H252.286z"/>
  </symbol>
</svg>
