<svg xmlns="http://www.w3.org/2000/svg" style="display: none;">

  <!-- minicons-icons -->
  <symbol id="minicons-square-vector" viewBox="0 0 512 512">
    <path d="M 93.379909,63.979157 418.7168,63.99935 c -3.66219,10.93279 -3.51639,21.601137 0.0118,32.034598 L 93.283199,96.00065 c 3.527888,-10.427659 3.659578,-21.094486 0.09671,-32.021493 z m 0.03374,352.099263 325.306149,-0.0876 c -3.76104,10.72833 -3.49087,21.41752 0.0201,32.07524 l -325.470998,-0.025 c 3.514521,-10.21243 3.831515,-20.83239 0.144719,-31.96263 z M 32.082177,125.27889 c 10.459409,3.52044 21.100501,3.72519 31.959331,-0.0438 l -0.02779,261.38257 c -10.742946,-3.48786 -21.417272,-3.5104 -32.018977,0.13438 z m 415.869153,-0.0464 c 11.45075,4.00147 22.02759,3.38369 32.08217,0.005 l -0.0409,261.50959 c -10.28518,-3.48912 -20.90356,-3.89612 -31.98723,7.5e-4 z M 48,32 C 22,32 0,53 0,80 0,107 22,128 48,128 74,128 96,107 96,80 96,53 75,32 48,32 m 416,96 c 26,0 48,-21 48,-48 0,-27 -22,-48 -48,-48 -26,0 -48,21 -48,48 0,27 22,48 48,48 m 0,256 c -26,0 -48,21 -48,48 0,27 22,48 48,48 26,0 48,-21 48,-48 0,-27 -22,-48 -48,-48 m -416,0 c -26,0 -48,21 -48,48 0,27 22,48 48,48 26,0 48,-21 48,-48 0,-27 -21,-48 -48,-48"/>
  </symbol>
  <symbol id="minicons-line-vector" viewBox="0 0 512 512">
    <path d="m 197.10724,189.0702 134.8205,152.8873 c -13.59341,5.61187 -21.68524,13.56133 -26.47342,23.49558 L 170.76154,216.80596 c 13.04776,-4.55937 24.93294,-20.73236 26.3457,-27.73576 z m -74.68326,21.38163 c 9.53121,7.99361 20.72676,9.6562 30.96362,10.16996 L 80.426162,396.25928 c -8.062327,-7.20424 -17.728406,-11.45759 -29.32113,-12.16591 z m 309.51059,-94.74391 c 9.07252,7.73357 19.01283,11.89954 29.88303,12.24265 l -77.62667,227.18022 c -6.61817,-7.00085 -14.70777,-13.08703 -28.65366,-15.53281 z m -279.95759,8.9345 c -26,0 -48,21 -48,48.00001 0,27 22,48 48,48 26,0 48,-21 48,-48 0,-27.00001 -21,-48.00001 -48,-48.00001 M 464,128 c 26,0 48,-21 48,-48 0,-27 -22,-48 -48,-48 -26,0 -48,21 -48,48 0,27 22,48 48,48 M 348.34609,339.05678 c -26,0 -48,21 -48,48 0,27 22,48 48,48 26,0 48,-21 48,-48 0,-27 -22,-48 -48,-48 M 48,384 c -26,0 -48,21 -48,48 0,27 22,48 48,48 26,0 48,-21 48,-48 0,-27 -21,-48 -48,-48"/>
  </symbol>

  <symbol id="minicons-hand-vector" viewBox="0 0 512 512">
    <path d="M154.142,86.062c0-36.337,30.6-66.938,66.938-66.938s66.937,30.6,66.937,66.938v53.55
			c11.476-15.3,19.125-34.425,19.125-53.55C307.141,38.25,268.891,0,221.079,0c-47.812,0-86.062,38.25-86.062,86.062
			c0,21.038,7.65,40.163,19.125,53.55V86.062z"/>
		<path d="M450.579,229.5c-11.475,0-21.037,3.825-28.688,9.562l0,0c0-26.775-21.037-47.812-47.812-47.812
			c-11.475,0-22.949,3.825-32.512,11.475c-7.65-19.125-24.863-30.6-43.988-30.6c-11.475,0-21.037,3.825-28.688,9.562V86.062
			c0-26.775-21.037-47.812-47.812-47.812s-47.812,21.038-47.812,47.812v170.212c-38.25-34.425-80.325-61.2-107.1-34.425
			c-38.25,38.25,42.075,112.837,103.275,225.675c43.988,78.412,105.188,107.1,166.387,107.1
			c89.888,0,162.562-72.675,162.562-162.562v-114.75C498.391,250.538,477.354,229.5,450.579,229.5z M479.266,319.388v72.675
			c0,74.588-65.024,143.438-143.438,143.438c-72.675,0-114.75-40.162-149.175-95.625c-72.675-126.225-126.225-183.6-107.1-204.638
			c21.037-21.037,72.675,24.863,112.837,66.938V86.062c0-15.3,13.387-28.688,28.688-28.688c15.3,0,28.688,13.388,28.688,28.688
			v200.812h19.125v-66.938c0-15.3,13.388-28.688,28.688-28.688c15.301,0,28.688,13.388,28.688,28.688v47.812h19.125v-28.688
			c0-15.3,13.388-28.688,28.688-28.688c15.301,0,28.688,13.388,28.688,28.688v47.812h19.125v-9.562
			c0-15.3,13.388-28.688,28.688-28.688c15.301,0,28.688,13.388,28.688,28.688V319.388z"/>
  </symbol>

  <!-- steady-icons -->
  <symbol id="steady-measure" viewBox="0 0 512 512">
    <path d="m64 299l21 0l0-22l-21 0z m21-214l-21 0l0 22l21 0z m0 384l-21 0l0 22l-43 0l0 21l107 0l0-21l-43 0z m-21-298l21 0l0-22l-21 0z m0 64l21 0l0-22l-21 0z m128-235l0 512l277 0l0-512z m171 469l-128 0l0-426l128 0z m64 0l-43 0l0-42l43 0z m0-64l-43 0l0-42l43 0z m0-64l-43 0l0-42l43 0z m0-64l-43 0l0-42l43 0z m0-64l-43 0l0-42l43 0z m0-64l-43 0l0-42l43 0z m0-64l-43 0l0-42l43 0z m-406-64l43 0l0 22l21 0l0-22l43 0l0-21l-107 0z m43 406l21 0l0-22l-21 0z m0-64l21 0l0-22l-21 0z"/>
  </symbol>

  <symbol id="steady-select" viewBox="0 0 512 512">
		<path d="M444.902,365.824L231.569,152.491c-3.072-3.029-7.637-3.968-11.627-2.304c-3.989,1.643-6.592,5.547-6.592,9.856v295.381
			c0,4.075,2.325,7.787,5.995,9.579c3.669,1.792,8.043,1.344,11.221-1.173l54.165-42.347l47.275,85.077
			c1.963,3.499,5.589,5.483,9.344,5.483c1.6,0,3.243-0.363,4.779-1.131l64-32c2.603-1.301,4.565-3.605,5.419-6.379
			c0.853-2.795,0.533-5.803-0.853-8.341l-44.544-80.149h67.2c4.309,0,8.192-2.603,9.856-6.592
			C448.87,373.461,447.953,368.875,444.902,365.824z M352.038,362.731c-3.776,0-7.275,2.005-9.195,5.269
			c-1.92,3.243-1.984,7.275-0.149,10.581l47.936,86.251l-44.907,22.464l-48.363-87.083c-1.515-2.731-4.16-4.672-7.211-5.291
			c-0.725-0.149-1.429-0.213-2.133-0.213c-2.347,0-4.693,0.789-6.571,2.261l-46.763,36.565V185.792l176.939,176.939H352.038z"/>
		<path d="M224.017,0c-5.888,0-10.667,4.779-10.667,10.667v64c0,5.888,4.779,10.667,10.667,10.667s10.667-4.779,10.667-10.667v-64
			C234.683,4.779,229.905,0,224.017,0z"/>
		<path d="M138.683,149.333h-64c-5.888,0-10.667,4.779-10.667,10.667s4.779,10.667,10.667,10.667h64
			c5.888,0,10.667-4.779,10.667-10.667S144.571,149.333,138.683,149.333z"/>
		<path d="M373.35,149.333h-64c-5.888,0-10.667,4.779-10.667,10.667s4.779,10.667,10.667,10.667h64
			c5.888,0,10.667-4.779,10.667-10.667S379.238,149.333,373.35,149.333z"/>
		<path d="M171.217,92.117l-45.269-45.248c-4.16-4.16-10.923-4.16-15.083,0c-4.16,4.16-4.16,10.923,0,15.083l45.269,45.248
			c2.091,2.069,4.821,3.115,7.552,3.115c2.731,0,5.461-1.024,7.531-3.115C175.377,103.04,175.377,96.277,171.217,92.117z"/>
		<path d="M171.217,212.821c-4.16-4.16-10.923-4.16-15.083,0l-45.269,45.248c-4.16,4.16-4.16,10.923,0,15.083
			c2.091,2.069,4.821,3.115,7.552,3.115s5.461-1.045,7.531-3.115l45.269-45.248C175.377,223.744,175.377,216.981,171.217,212.821z"
			/>
		<path d="M337.169,46.869c-4.16-4.181-10.923-4.181-15.104,0l-45.269,45.248c-4.16,4.16-4.16,10.923,0,15.083
			c2.091,2.069,4.821,3.115,7.552,3.115c2.731,0,5.461-1.024,7.552-3.115l45.269-45.248
			C341.329,57.792,341.329,51.051,337.169,46.869z"/>
  </symbol>

  <symbol id="steady-stats" viewBox="0 0 512 512">
    <path d="M499.904,456.607H12.096C5.415,456.607,0,462.022,0,468.703c0,6.679,5.415,12.096,12.096,12.096h487.808
			c6.679,0,12.096-5.417,12.096-12.096C512,462.023,506.585,456.607,499.904,456.607z"/>
      <path d="M468.37,88.305h-84.948c-6.679,0-12.096,5.417-12.096,12.096v82.24h-60.757V43.297c0-6.679-5.417-12.096-12.096-12.096
  			h-84.95c-6.679,0-12.096,5.417-12.096,12.096v228.882h-60.757V169.36c0-6.681-5.417-12.096-12.096-12.096H43.626
  			c-6.681,0-12.096,5.415-12.096,12.096v231.563c0,6.681,5.417,12.096,12.096,12.096h84.948h84.948h84.95h84.949h84.948
  			c6.681,0,12.096-5.417,12.096-12.096V100.401C480.466,93.722,475.051,88.305,468.37,88.305z M116.479,388.827H55.722V181.456
  			h60.757V388.827z M201.429,388.827h-60.757v-92.456h60.757V388.827z M286.378,194.737v194.09H225.62V55.393h60.758V194.737z
  			 M371.328,388.827h-60.757V206.833h60.757V388.827z M456.276,388.827H395.52v-194.09v-82.24h60.757V388.827z"/>
  </symbol>

  <symbol id="steady-ochart" viewBox="0 0 512 512">
    <path d="M50,57.5c-3.9,0-7-3.1-7-7s3.1-7,7-7s7,3.1,7,7S53.9,57.5,50,57.5z M50,47.5c-1.7,0-3,1.3-3,3c0,1.7,1.3,3,3,3  c1.7,0,3-1.3,3-3C53,48.8,51.7,47.5,50,47.5z"/><path d="M29,52.5c-0.2,0-0.5,0-0.7-0.1c-1-0.4-1.5-1.6-1.1-2.6c3.2-8.3,13.7-15.3,22.9-15.3c9.1,0,19.5,6.9,22.8,15.1  c0.4,1-0.1,2.2-1.1,2.6c-1,0.4-2.2-0.1-2.6-1.1C66.5,44.4,57.5,38.5,50,38.5c-7.5,0-16.6,6.1-19.2,12.7C30.6,52,29.8,52.5,29,52.5z"/><path d="M50,66.5c-9.2,0-19.7-7-22.9-15.3c-0.4-1,0.1-2.2,1.1-2.6c1-0.4,2.2,0.1,2.6,1.1c2.6,6.7,11.7,12.7,19.2,12.7  c7.5,0,16.4-5.9,19.1-12.6c0.4-1,1.6-1.5,2.6-1.1c1,0.4,1.5,1.6,1.1,2.6C69.6,59.6,59.1,66.5,50,66.5z"/>
  </symbol>

  <!-- origo-icons -->
  <symbol id="origo-compass" viewBox="0 0 512 512">
    <path opacity="0.7" fill="#010202" d="
		M511.454,256.228c0,140.957-114.27,255.227-255.227,255.227C115.268,511.454,1,397.185,1,256.228C1,115.269,115.268,1,256.227,1
		C397.185,1,511.454,115.269,511.454,256.228z"/>
	<path id="path3011" fill="#E52620" d="M252.316,17.455v9.485l-3.103,34.295l-3.947,43.43
		l-4.329,31.176l-16.439,118.371h32.879h32.88l-16.44-118.371l-4.186-30.189l-3.804-41.95l-3.405-37.494v-8.753H252.316
		L252.316,17.455z"/>
	<path id="path3011-7" fill="#FFFFFF" d="M252.286,491v-9.485l-3.103-34.295l-3.947-43.43
		l-4.329-31.177l-16.439-118.37h32.878h32.88l-16.439,118.37l-4.186,30.19l-3.805,41.949l-3.404,37.494V491H252.286z"/>
  </symbol>
</svg>
